<svg xmlns="http://www.w3.org/2000/svg" version="1.1" xmlns:xlink="http://www.w3.org/1999/xlink" xmlns:svgjs="http://svgjs.dev/svgjs" width="1500" height="935" viewBox="0 0 1500 935"><g transform="matrix(1,0,0,1,-0.9090909090909918,0.3785425101214628)"><svg viewBox="0 0 396 247" data-background-color="#ffffff" preserveAspectRatio="xMidYMid meet" height="935" width="1500" xmlns="http://www.w3.org/2000/svg" xmlns:xlink="http://www.w3.org/1999/xlink"><g id="tight-bounds" transform="matrix(1,0,0,1,0.2400000000000091,-0.09999999999999432)"><svg viewBox="0 0 395.52 247.2" height="247.2" width="395.52"><g><svg></svg></g><g><svg viewBox="0 0 395.52 247.2" height="247.2" width="395.52"><g transform="matrix(1,0,0,1,75.54432,100.4399373561281)"><svg viewBox="0 0 244.43135999999998 46.3201252877438" height="46.3201252877438" width="244.43135999999998"><g><svg viewBox="0 0 244.43135999999998 46.3201252877438" height="46.3201252877438" width="244.43135999999998"><g><svg viewBox="0 0 244.43135999999998 46.3201252877438" height="46.3201252877438" width="244.43135999999998"><g><svg viewBox="0 0 244.43135999999998 46.3201252877438" height="46.3201252877438" width="244.43135999999998"><g id="textblocktransform"><svg viewBox="0 0 244.43135999999998 46.3201252877438" height="46.3201252877438" width="244.43135999999998" id="textblock"><g><svg viewBox="0 0 244.43135999999998 46.3201252877438" height="46.3201252877438" width="244.43135999999998"><g transform="matrix(1,0,0,1,0,0)"><svg width="244.43135999999998" viewBox="4.45 -38.85 207.63000000000002 39.35" height="46.3201252877438" data-palette-color="#dddddd"><path d="M4.45 0L4.45-36.25 13.55-36.25Q19.05-36.25 22.85-34.6 26.65-32.95 29.03-30.28 31.4-27.6 32.48-24.28 33.55-20.95 33.55-17.65L33.55-17.65Q33.55-13.6 32.1-10.33 30.65-7.05 28.15-4.75 25.65-2.45 22.35-1.23 19.05 0 15.35 0L15.35 0 4.45 0ZM9.9-5.2L14.55-5.2Q17.45-5.2 19.93-6.05 22.4-6.9 24.23-8.53 26.05-10.15 27.08-12.53 28.1-14.9 28.1-18L28.1-18Q28.1-21.3 26.95-23.75 25.8-26.2 23.95-27.83 22.1-29.45 19.78-30.23 17.45-31 15.05-31L15.05-31 9.9-31 9.9-5.2ZM37.35-28.9L37.35-28.9Q37.35-30.1 38.22-30.9 39.1-31.7 40.1-31.7L40.1-31.7Q41.1-31.7 41.95-30.9 42.8-30.1 42.8-28.9L42.8-28.9Q42.8-27.7 41.95-26.93 41.1-26.15 40.1-26.15L40.1-26.15Q39.1-26.15 38.22-26.93 37.35-27.7 37.35-28.9ZM42.15-20.9L42.15 0 37.9 0 37.9-20.9 42.15-20.9ZM48.15 0L48.15-20.9 51.9-20.9Q52-19.35 52.07-18.07 52.15-16.8 52.25-15.55L52.25-15.55Q53.4-18.25 55.27-19.83 57.15-21.4 60.3-21.45L60.3-21.45Q63.35-21.45 65.2-19.9 67.05-18.35 67.35-15.85L67.35-15.85Q68.6-18.4 70.42-19.9 72.25-21.4 75.35-21.45L75.35-21.45Q78.6-21.45 80.47-19.7 82.35-17.95 82.45-15.2L82.45-15.2 82.45 0 78.15 0 78.15-13.25Q78.05-14.85 77.07-15.98 76.1-17.1 73.9-17.2L73.9-17.2Q70.9-17.2 69.2-15.28 67.5-13.35 67.4-10.35L67.4-10.35 67.4 0 63.15 0 63.15-13.25Q63.05-14.85 62.02-15.98 61-17.1 58.9-17.2L58.9-17.2Q57.4-17.2 56.2-16.68 55-16.15 54.15-15.25 53.3-14.35 52.85-13.1 52.4-11.85 52.4-10.35L52.4-10.35 52.4 0 48.15 0ZM86.79-10.25L86.79-10.25Q86.79-12.55 87.67-14.58 88.54-16.6 90.04-18.13 91.54-19.65 93.52-20.55 95.49-21.45 97.74-21.45L97.74-21.45Q99.24-21.45 100.49-21.08 101.74-20.7 102.64-20.15 103.54-19.6 104.09-19 104.64-18.4 104.84-17.95L104.84-17.95 105.04-20.9 109.14-20.9 109.14 0 104.84 0 104.84-2.65Q104.59-2.25 104.04-1.7 103.49-1.15 102.62-0.68 101.74-0.2 100.54 0.15 99.34 0.5 97.79 0.5L97.79 0.5Q95.39 0.5 93.37-0.38 91.34-1.25 89.89-2.73 88.44-4.2 87.62-6.15 86.79-8.1 86.79-10.25ZM91.09-10.5L91.09-10.5Q91.09-9.05 91.62-7.8 92.14-6.55 93.04-5.65 93.94-4.75 95.19-4.23 96.44-3.7 97.94-3.7L97.94-3.7Q99.44-3.7 100.72-4.23 101.99-4.75 102.92-5.68 103.84-6.6 104.34-7.83 104.84-9.05 104.84-10.5L104.84-10.5Q104.84-11.95 104.34-13.18 103.84-14.4 102.92-15.3 101.99-16.2 100.72-16.73 99.44-17.25 97.94-17.25L97.94-17.25Q96.44-17.25 95.19-16.73 93.94-16.2 93.04-15.3 92.14-14.4 91.62-13.18 91.09-11.95 91.09-10.5ZM113.74-10.45L113.74-10.45Q113.74-12.9 114.57-14.93 115.39-16.95 116.84-18.4 118.29-19.85 120.27-20.65 122.24-21.45 124.54-21.45L124.54-21.45Q126.09-21.45 127.32-21.08 128.54-20.7 129.42-20.18 130.29-19.65 130.89-19 131.49-18.35 131.79-17.85L131.79-17.85 131.79-38.85 136.09-38.85 136.09 0 131.79 0 131.79-1.55Q131.79-1.85 131.84-2.23 131.89-2.6 131.89-2.85L131.89-2.85Q131.39-2.25 130.72-1.68 130.04-1.1 129.14-0.6 128.24-0.1 127.07 0.2 125.89 0.5 124.39 0.5L124.39 0.5Q121.89 0.5 119.92-0.38 117.94-1.25 116.57-2.73 115.19-4.2 114.47-6.2 113.74-8.2 113.74-10.45ZM118.04-10.5L118.04-10.5Q118.04-9.05 118.57-7.8 119.09-6.55 119.99-5.65 120.89-4.75 122.14-4.23 123.39-3.7 124.89-3.7L124.89-3.7Q126.39-3.7 127.67-4.23 128.94-4.75 129.87-5.68 130.79-6.6 131.29-7.83 131.79-9.05 131.79-10.5L131.79-10.5Q131.79-11.95 131.29-13.18 130.79-14.4 129.87-15.3 128.94-16.2 127.67-16.73 126.39-17.25 124.89-17.25L124.89-17.25Q123.39-17.25 122.14-16.73 120.89-16.2 119.99-15.3 119.09-14.4 118.57-13.18 118.04-11.95 118.04-10.5ZM142.09 0L142.09-20.9 145.84-20.9Q145.94-19.35 146.01-18.07 146.09-16.8 146.19-15.55L146.19-15.55Q147.34-18.25 149.21-19.83 151.09-21.4 154.24-21.45L154.24-21.45Q157.29-21.45 159.14-19.9 160.99-18.35 161.29-15.85L161.29-15.85Q162.54-18.4 164.36-19.9 166.19-21.4 169.29-21.45L169.29-21.45Q172.54-21.45 174.41-19.7 176.29-17.95 176.39-15.2L176.39-15.2 176.39 0 172.09 0 172.09-13.25Q171.99-14.85 171.01-15.98 170.04-17.1 167.84-17.2L167.84-17.2Q164.84-17.2 163.14-15.28 161.44-13.35 161.34-10.35L161.34-10.35 161.34 0 157.09 0 157.09-13.25Q156.99-14.85 155.96-15.98 154.94-17.1 152.84-17.2L152.84-17.2Q151.34-17.2 150.14-16.68 148.94-16.15 148.09-15.25 147.24-14.35 146.79-13.1 146.34-11.85 146.34-10.35L146.34-10.35 146.34 0 142.09 0ZM181.64-28.9L181.64-28.9Q181.64-30.1 182.51-30.9 183.39-31.7 184.39-31.7L184.39-31.7Q185.39-31.7 186.24-30.9 187.09-30.1 187.09-28.9L187.09-28.9Q187.09-27.7 186.24-26.93 185.39-26.15 184.39-26.15L184.39-26.15Q183.39-26.15 182.51-26.93 181.64-27.7 181.64-28.9ZM186.44-20.9L186.44 0 182.19 0 182.19-20.9 186.44-20.9ZM192.43 0L192.43-20.9 196.18-20.9Q196.28-19.35 196.36-18.07 196.43-16.8 196.53-15.55L196.53-15.55Q197.68-18.25 199.81-19.85 201.93-21.45 205.03-21.45L205.03-21.45Q208.18-21.45 210.08-19.7 211.98-17.95 212.08-15.2L212.08-15.2 212.08 0 207.78 0 207.78-13.25Q207.68-14.85 206.68-15.98 205.68-17.1 203.53-17.2L203.53-17.2Q202.03-17.2 200.78-16.68 199.53-16.15 198.63-15.25 197.73-14.35 197.21-13.1 196.68-11.85 196.68-10.35L196.68-10.35 196.68 0 192.43 0Z" opacity="1" transform="matrix(1,0,0,1,0,0)" fill="#dddddd" class="wordmark-text-0" data-fill-palette-color="primary" id="text-0"></path></svg></g></svg></g></svg></g></svg></g></svg></g></svg></g></svg></g><path d="M188.397 94.44L188.397 33.25 7.697 33.25 7.697 213.95 188.397 213.95 188.397 152.76 184.219 152.76 184.219 209.773 11.874 209.773 11.874 37.427 184.219 37.427 184.219 94.44Z" fill="#dddddd" stroke="transparent" data-fill-palette-color="tertiary"></path></svg></g><defs></defs></svg><rect width="395.52" height="247.2" fill="none" stroke="none" visibility="hidden"></rect></g></svg></g></svg>